<svg width="18" height="16" viewBox="0 0 18 16" fill="none" xmlns="http://www.w3.org/2000/svg">
  <path d="M16.1856 5.81333C16.1314 5.28 15.6432 4.8 15.1009 4.8H13.6365V4.53333C13.6365 2.02667 11.5754 0 9.02629 0C6.47714 0 4.41612 2.02667 4.41612 4.53333V4.8H2.95172C2.40934 4.8 1.92121 5.22667 1.86697 5.81333L0.999173 14.6667C0.944936 14.9867 1.05341 15.36 1.27036 15.6267C1.48731 15.84 1.81273 16 2.13816 16H15.9144C16.2399 16 16.511 15.84 16.728 15.5733C16.9449 15.3067 17.0534 14.9867 16.9992 14.6133L16.1856 5.81333ZM6.04324 4.53333C6.04324 2.93333 7.39917 1.6 9.02629 1.6C10.6534 1.6 12.0093 2.93333 12.0093 4.53333V4.8H6.04324V4.53333Z" fill="#202020"></path>
</svg>