<?xml version="1.0" encoding="utf-8"?>
<!-- Generator: Adobe Illustrator 22.0.1, SVG Export Plug-In . SVG Version: 6.00 Build 0)  -->
<svg version="1.1" id="Layer_1" xmlns="http://www.w3.org/2000/svg" xmlns:xlink="http://www.w3.org/1999/xlink" x="0px" y="0px"
	 viewBox="0 0 612 87.9" style="enable-background:new 0 0 612 87.9;" xml:space="preserve">
<g>
	<g>
		<g>
			<path d="M68.3,14.6H41.5v73.2H26.8V14.6H4.2L0,0h68.3V14.6z"/>
			<path d="M88.5,0h14.6v36.6h39.1V0h14.6v87.9h-14.6V51.3h-39.1v36.6H88.5V0z"/>
			<path d="M225.2,14.6H196v22h24.4v14.6H196v22h34.2l-4.9,14.6h-43.9V0h48.8L225.2,14.6z"/>
		</g>
	</g>
	<g>
		<g>
			<path d="M313.8,0v87.9h-14.6V0H313.8z"/>
			<path d="M368.1,0c24,0.3,43.4,19.9,43.4,43.9c0,24-19.3,43.6-43.4,43.9h-25V0H368.1z M368.1,14.6h-10.3v58.6h10.3
				c15.9-0.3,28.7-13.4,28.7-29.3C396.8,27.9,384,14.9,368.1,14.6z"/>
			<path d="M479.8,14.6h-29.3v22h24.4v14.6h-24.4v22h34.2l-4.9,14.6h-43.9V0h48.8L479.8,14.6z"/>
			<path d="M579.9,87.9h-17.1l-6-14.6h-32l-6,14.6h-17.1L540.9,0L579.9,87.9z M530.9,58.6h19.9l-10-24.4L530.9,58.6z"/>
		</g>
	</g>
	<circle cx="599.4" cy="75.2" r="12.7"/>
</g>
</svg>
